<svg width="800" height="500" viewBox="0 0 800 500" xmlns="http://www.w3.org/2000/svg" role="img" aria-label="Illustration of a custom deck">
  <rect width="800" height="500" fill="#fff8f6"/>
  <rect x="60" y="220" width="680" height="140" rx="16" fill="#d9c9c4"/>
  <rect x="80" y="200" width="640" height="140" rx="14" fill="#c5b3ad"/>
  <rect x="120" y="180" width="560" height="140" rx="12" fill="#b39f99"/>
  <path d="M140 190h520v80H140z" fill="#8f5f56"/>
  <path d="M140 190h520v18H140z" fill="#71312c"/>
  <g fill="#b11212">
    <rect x="140" y="208" width="12" height="132" rx="6"/>
    <rect x="728" y="208" width="12" height="132" rx="6"/>
    <rect x="430" y="176" width="12" height="116" rx="6"/>
  </g>
  <g stroke="#b11212" stroke-width="6" stroke-linecap="round">
    <line x1="140" y1="210" x2="430" y2="160"/>
    <line x1="730" y1="210" x2="430" y2="160"/>
  </g>
  <rect x="90" y="360" width="620" height="28" fill="#b11212" rx="8"/>
  <rect x="90" y="396" width="620" height="18" fill="#320000" rx="6"/>
  <g fill="#b11212">
    <rect x="150" y="252" width="40" height="88" rx="6"/>
    <rect x="250" y="252" width="40" height="88" rx="6"/>
    <rect x="350" y="252" width="40" height="88" rx="6"/>
    <rect x="450" y="252" width="40" height="88" rx="6"/>
    <rect x="550" y="252" width="40" height="88" rx="6"/>
    <rect x="650" y="252" width="40" height="88" rx="6"/>
  </g>
</svg>
